<mxfile host="app.diagrams.net" agent="Mozilla/5.0 (Windows NT 10.0; Win64; x64) AppleWebKit/537.36 (KHTML, like Gecko) Chrome/134.0.0.0 YaBrowser/25.4.0.0 Safari/537.36" version="27.0.5">
  <diagram name="Страница — 1" id="omfdKFbqODgBR3_6B-VX">
    <mxGraphModel dx="1720" dy="2384" grid="1" gridSize="10" guides="1" tooltips="1" connect="1" arrows="1" fold="1" page="1" pageScale="1" pageWidth="827" pageHeight="1169" math="0" shadow="0">
      <root>
        <mxCell id="0" />
        <mxCell id="1" parent="0" />
        <mxCell id="Tb66It2B4Z3466OrSjz3-3" value="Пользователь" style="shape=umlActor;verticalLabelPosition=bottom;verticalAlign=top;html=1;outlineConnect=0;" parent="1" vertex="1">
          <mxGeometry x="104" y="-530" width="30" height="60" as="geometry" />
        </mxCell>
        <mxCell id="Tb66It2B4Z3466OrSjz3-4" value="Администратор" style="shape=umlActor;verticalLabelPosition=bottom;verticalAlign=top;html=1;outlineConnect=0;" parent="1" vertex="1">
          <mxGeometry x="694" y="-530" width="30" height="60" as="geometry" />
        </mxCell>
        <mxCell id="Tb66It2B4Z3466OrSjz3-7" value="Войти/зарегестрироваться" style="ellipse;whiteSpace=wrap;html=1;" parent="1" vertex="1">
          <mxGeometry x="344" y="-970" width="120" height="80" as="geometry" />
        </mxCell>
        <mxCell id="Tb66It2B4Z3466OrSjz3-8" value="Изменять пользовательские данные" style="ellipse;whiteSpace=wrap;html=1;" parent="1" vertex="1">
          <mxGeometry x="344" y="-790" width="120" height="80" as="geometry" />
        </mxCell>
        <mxCell id="Tb66It2B4Z3466OrSjz3-10" value="Посмотреть статистику всех пользователей" style="ellipse;whiteSpace=wrap;html=1;" parent="1" vertex="1">
          <mxGeometry x="344" y="-340" width="120" height="80" as="geometry" />
        </mxCell>
        <mxCell id="Tb66It2B4Z3466OrSjz3-11" value="Восстановить пароль" style="ellipse;whiteSpace=wrap;html=1;" parent="1" vertex="1">
          <mxGeometry x="344" y="-880" width="120" height="80" as="geometry" />
        </mxCell>
        <mxCell id="Tb66It2B4Z3466OrSjz3-12" value="Провести расчет (решить систему методом Гауса)" style="ellipse;whiteSpace=wrap;html=1;" parent="1" vertex="1">
          <mxGeometry x="344" y="-610" width="120" height="80" as="geometry" />
        </mxCell>
        <mxCell id="Tb66It2B4Z3466OrSjz3-13" value="Выбрать кол-во уравнений" style="ellipse;whiteSpace=wrap;html=1;" parent="1" vertex="1">
          <mxGeometry x="344" y="-700" width="120" height="80" as="geometry" />
        </mxCell>
        <mxCell id="Tb66It2B4Z3466OrSjz3-14" value="Посмотреть решение" style="ellipse;whiteSpace=wrap;html=1;" parent="1" vertex="1">
          <mxGeometry x="344" y="-520" width="120" height="80" as="geometry" />
        </mxCell>
        <mxCell id="Tb66It2B4Z3466OrSjz3-15" value="" style="endArrow=none;html=1;rounded=0;exitX=1;exitY=0.3333333333333333;exitDx=0;exitDy=0;exitPerimeter=0;entryX=0;entryY=0.5;entryDx=0;entryDy=0;" parent="1" source="Tb66It2B4Z3466OrSjz3-3" target="Tb66It2B4Z3466OrSjz3-7" edge="1">
          <mxGeometry width="50" height="50" relative="1" as="geometry">
            <mxPoint x="294" y="-340" as="sourcePoint" />
            <mxPoint x="344" y="-390" as="targetPoint" />
          </mxGeometry>
        </mxCell>
        <mxCell id="Tb66It2B4Z3466OrSjz3-16" value="" style="endArrow=none;html=1;rounded=0;entryX=0;entryY=0.5;entryDx=0;entryDy=0;" parent="1" target="Tb66It2B4Z3466OrSjz3-11" edge="1">
          <mxGeometry width="50" height="50" relative="1" as="geometry">
            <mxPoint x="134" y="-510" as="sourcePoint" />
            <mxPoint x="344" y="-390" as="targetPoint" />
          </mxGeometry>
        </mxCell>
        <mxCell id="Tb66It2B4Z3466OrSjz3-17" value="" style="endArrow=none;html=1;rounded=0;entryX=0;entryY=0.5;entryDx=0;entryDy=0;" parent="1" target="Tb66It2B4Z3466OrSjz3-8" edge="1">
          <mxGeometry width="50" height="50" relative="1" as="geometry">
            <mxPoint x="134" y="-510" as="sourcePoint" />
            <mxPoint x="344" y="-390" as="targetPoint" />
          </mxGeometry>
        </mxCell>
        <mxCell id="Tb66It2B4Z3466OrSjz3-18" value="" style="endArrow=none;html=1;rounded=0;exitX=1;exitY=0.3333333333333333;exitDx=0;exitDy=0;exitPerimeter=0;entryX=0;entryY=0.5;entryDx=0;entryDy=0;" parent="1" source="Tb66It2B4Z3466OrSjz3-3" target="Tb66It2B4Z3466OrSjz3-12" edge="1">
          <mxGeometry width="50" height="50" relative="1" as="geometry">
            <mxPoint x="294" y="-340" as="sourcePoint" />
            <mxPoint x="344" y="-390" as="targetPoint" />
          </mxGeometry>
        </mxCell>
        <mxCell id="Tb66It2B4Z3466OrSjz3-19" value="" style="endArrow=none;html=1;rounded=0;exitX=1;exitY=0.3333333333333333;exitDx=0;exitDy=0;exitPerimeter=0;entryX=0;entryY=0.5;entryDx=0;entryDy=0;" parent="1" source="Tb66It2B4Z3466OrSjz3-3" target="Tb66It2B4Z3466OrSjz3-13" edge="1">
          <mxGeometry width="50" height="50" relative="1" as="geometry">
            <mxPoint x="294" y="-340" as="sourcePoint" />
            <mxPoint x="344" y="-390" as="targetPoint" />
          </mxGeometry>
        </mxCell>
        <mxCell id="Tb66It2B4Z3466OrSjz3-20" value="" style="endArrow=none;html=1;rounded=0;exitX=1;exitY=0.3333333333333333;exitDx=0;exitDy=0;exitPerimeter=0;entryX=0;entryY=0.5;entryDx=0;entryDy=0;" parent="1" source="Tb66It2B4Z3466OrSjz3-3" target="Tb66It2B4Z3466OrSjz3-14" edge="1">
          <mxGeometry width="50" height="50" relative="1" as="geometry">
            <mxPoint x="294" y="-340" as="sourcePoint" />
            <mxPoint x="344" y="-390" as="targetPoint" />
          </mxGeometry>
        </mxCell>
        <mxCell id="Tb66It2B4Z3466OrSjz3-23" value="" style="endArrow=none;html=1;rounded=0;exitX=1;exitY=0.5;exitDx=0;exitDy=0;entryX=0;entryY=0.3333333333333333;entryDx=0;entryDy=0;entryPerimeter=0;" parent="1" source="Tb66It2B4Z3466OrSjz3-7" target="Tb66It2B4Z3466OrSjz3-4" edge="1">
          <mxGeometry width="50" height="50" relative="1" as="geometry">
            <mxPoint x="294" y="-340" as="sourcePoint" />
            <mxPoint x="344" y="-390" as="targetPoint" />
          </mxGeometry>
        </mxCell>
        <mxCell id="Tb66It2B4Z3466OrSjz3-24" value="" style="endArrow=none;html=1;rounded=0;exitX=1;exitY=0.5;exitDx=0;exitDy=0;entryX=0;entryY=0.3333333333333333;entryDx=0;entryDy=0;entryPerimeter=0;" parent="1" source="Tb66It2B4Z3466OrSjz3-11" target="Tb66It2B4Z3466OrSjz3-4" edge="1">
          <mxGeometry width="50" height="50" relative="1" as="geometry">
            <mxPoint x="294" y="-340" as="sourcePoint" />
            <mxPoint x="344" y="-390" as="targetPoint" />
          </mxGeometry>
        </mxCell>
        <mxCell id="Tb66It2B4Z3466OrSjz3-25" value="" style="endArrow=none;html=1;rounded=0;exitX=1;exitY=0.5;exitDx=0;exitDy=0;entryX=0;entryY=0.3333333333333333;entryDx=0;entryDy=0;entryPerimeter=0;" parent="1" source="Tb66It2B4Z3466OrSjz3-8" target="Tb66It2B4Z3466OrSjz3-4" edge="1">
          <mxGeometry width="50" height="50" relative="1" as="geometry">
            <mxPoint x="304" y="-350" as="sourcePoint" />
            <mxPoint x="344" y="-390" as="targetPoint" />
          </mxGeometry>
        </mxCell>
        <mxCell id="Tb66It2B4Z3466OrSjz3-26" value="" style="endArrow=none;html=1;rounded=0;exitX=1;exitY=0.5;exitDx=0;exitDy=0;" parent="1" source="Tb66It2B4Z3466OrSjz3-12" edge="1">
          <mxGeometry width="50" height="50" relative="1" as="geometry">
            <mxPoint x="294" y="-340" as="sourcePoint" />
            <mxPoint x="694" y="-510" as="targetPoint" />
          </mxGeometry>
        </mxCell>
        <mxCell id="Tb66It2B4Z3466OrSjz3-27" value="" style="endArrow=none;html=1;rounded=0;exitX=1;exitY=0.5;exitDx=0;exitDy=0;" parent="1" source="Tb66It2B4Z3466OrSjz3-13" edge="1">
          <mxGeometry width="50" height="50" relative="1" as="geometry">
            <mxPoint x="294" y="-340" as="sourcePoint" />
            <mxPoint x="694" y="-510" as="targetPoint" />
          </mxGeometry>
        </mxCell>
        <mxCell id="Tb66It2B4Z3466OrSjz3-28" value="" style="endArrow=none;html=1;rounded=0;exitX=1;exitY=0.5;exitDx=0;exitDy=0;entryX=0;entryY=0.3333333333333333;entryDx=0;entryDy=0;entryPerimeter=0;" parent="1" source="Tb66It2B4Z3466OrSjz3-14" target="Tb66It2B4Z3466OrSjz3-4" edge="1">
          <mxGeometry width="50" height="50" relative="1" as="geometry">
            <mxPoint x="294" y="-340" as="sourcePoint" />
            <mxPoint x="344" y="-390" as="targetPoint" />
          </mxGeometry>
        </mxCell>
        <mxCell id="Tb66It2B4Z3466OrSjz3-37" value="Войти как администратор" style="ellipse;whiteSpace=wrap;html=1;" parent="1" vertex="1">
          <mxGeometry x="344" y="-1060" width="120" height="80" as="geometry" />
        </mxCell>
        <mxCell id="Tb66It2B4Z3466OrSjz3-38" value="" style="endArrow=none;html=1;rounded=0;entryX=1;entryY=0.5;entryDx=0;entryDy=0;" parent="1" target="Tb66It2B4Z3466OrSjz3-37" edge="1">
          <mxGeometry width="50" height="50" relative="1" as="geometry">
            <mxPoint x="694" y="-510" as="sourcePoint" />
            <mxPoint x="344" y="-520" as="targetPoint" />
          </mxGeometry>
        </mxCell>
        <mxCell id="Tb66It2B4Z3466OrSjz3-42" value="" style="endArrow=none;html=1;rounded=0;exitX=1;exitY=0.5;exitDx=0;exitDy=0;" parent="1" source="Tb66It2B4Z3466OrSjz3-10" edge="1">
          <mxGeometry width="50" height="50" relative="1" as="geometry">
            <mxPoint x="294" y="30" as="sourcePoint" />
            <mxPoint x="694" y="-510" as="targetPoint" />
          </mxGeometry>
        </mxCell>
        <mxCell id="Tb66It2B4Z3466OrSjz3-43" value="" style="endArrow=none;html=1;rounded=0;exitX=1;exitY=0.5;exitDx=0;exitDy=0;" parent="1" source="O_-LU_-R4yDdNCtOAG-U-1" edge="1">
          <mxGeometry width="50" height="50" relative="1" as="geometry">
            <mxPoint x="464" y="-210" as="sourcePoint" />
            <mxPoint x="694" y="-510" as="targetPoint" />
          </mxGeometry>
        </mxCell>
        <mxCell id="O_-LU_-R4yDdNCtOAG-U-1" value="Настройка требований к паролям" style="ellipse;whiteSpace=wrap;html=1;" vertex="1" parent="1">
          <mxGeometry x="344" y="-250" width="120" height="80" as="geometry" />
        </mxCell>
        <mxCell id="O_-LU_-R4yDdNCtOAG-U-2" value="Изменение алгоритмов" style="ellipse;whiteSpace=wrap;html=1;" vertex="1" parent="1">
          <mxGeometry x="344" y="-160" width="120" height="80" as="geometry" />
        </mxCell>
        <mxCell id="O_-LU_-R4yDdNCtOAG-U-4" value="Копирование в буфер обмена" style="ellipse;whiteSpace=wrap;html=1;" vertex="1" parent="1">
          <mxGeometry x="344" y="-430" width="120" height="80" as="geometry" />
        </mxCell>
        <mxCell id="O_-LU_-R4yDdNCtOAG-U-6" value="" style="endArrow=none;html=1;rounded=0;exitX=1;exitY=0.5;exitDx=0;exitDy=0;entryX=0;entryY=0.3333333333333333;entryDx=0;entryDy=0;entryPerimeter=0;" edge="1" parent="1" source="O_-LU_-R4yDdNCtOAG-U-4" target="Tb66It2B4Z3466OrSjz3-4">
          <mxGeometry width="50" height="50" relative="1" as="geometry">
            <mxPoint x="544" y="-90" as="sourcePoint" />
            <mxPoint x="694" y="-510" as="targetPoint" />
          </mxGeometry>
        </mxCell>
        <mxCell id="O_-LU_-R4yDdNCtOAG-U-7" value="" style="endArrow=none;html=1;rounded=0;exitX=0;exitY=0.5;exitDx=0;exitDy=0;entryX=1;entryY=0.3333333333333333;entryDx=0;entryDy=0;entryPerimeter=0;" edge="1" parent="1" source="O_-LU_-R4yDdNCtOAG-U-4" target="Tb66It2B4Z3466OrSjz3-3">
          <mxGeometry width="50" height="50" relative="1" as="geometry">
            <mxPoint x="544" y="-90" as="sourcePoint" />
            <mxPoint x="594" y="-140" as="targetPoint" />
          </mxGeometry>
        </mxCell>
        <mxCell id="O_-LU_-R4yDdNCtOAG-U-8" value="" style="endArrow=none;html=1;rounded=0;exitX=1;exitY=0.5;exitDx=0;exitDy=0;entryX=0;entryY=0.3333333333333333;entryDx=0;entryDy=0;entryPerimeter=0;" edge="1" parent="1" source="O_-LU_-R4yDdNCtOAG-U-2" target="Tb66It2B4Z3466OrSjz3-4">
          <mxGeometry width="50" height="50" relative="1" as="geometry">
            <mxPoint x="544" y="-90" as="sourcePoint" />
            <mxPoint x="594" y="-140" as="targetPoint" />
          </mxGeometry>
        </mxCell>
      </root>
    </mxGraphModel>
  </diagram>
</mxfile>
